<svg id="Layer_1" data-name="Layer 1" xmlns="http://www.w3.org/2000/svg" viewBox="0 0 190 100"><title>earthscapes-main-logo</title><path d="M8.87964,79.64175a.92627.92627,0,1,1,0-1.85254c3.84131,0,4.99756-1.62012,5.57617-3.03125.8501-2.07422.8501-3.8291.8501-7.32617V64.20718s-.35791-.03516-.48047-.05078a14.95652,14.95652,0,0,1-10.355-6.084A15.87907,15.87907,0,0,1,2.4314,44.38687a24.04653,24.04653,0,0,1,4.18848-7.35205c.59863-.80713,1.21777-1.64258,1.76563-2.47754C11.33228,30.067,12.30835,26.86,11.98657,22.72574a2.19569,2.19569,0,0,1,3.40088-2.00244,34.39629,34.39629,0,0,1,7.9458,7.39453,37.04794,37.04794,0,0,1,5.46729,9.56885,27.72053,27.72053,0,0,1,1.876,11.73779,16.97341,16.97341,0,0,1-4.69336,11.00146c-.28271.2832-.58154.55957-.88721.81836A12.78315,12.78315,0,0,1,17.27808,64.255l-.11963.00488v3.17188c.00049,3.62207.001,5.61523-.98779,8.02734a6.61612,6.61612,0,0,1-1.4248,2.19336C13.40747,78.99136,11.48853,79.64175,8.87964,79.64175Zm8.27881-17.2373.13184-.00684a10.98058,10.98058,0,0,0,6.60449-2.56445q.408-.3457.77832-.7168c5.5542-5.55469,4.76416-14.65527,2.40039-20.76025A34.68325,34.68325,0,0,0,14.36206,22.26578a.33166.33166,0,0,0-.18652-.05762.34784.34784,0,0,0-.24316.10254.34165.34165,0,0,0-.09863.271c.40674,5.23145-1.26416,8.97705-3.89893,12.99268-.56787.86475-1.20557,1.7251-1.82178,2.55762a22.63877,22.63877,0,0,0-3.90576,6.78613A14.01024,14.01024,0,0,0,5.97876,56.99624a13.26178,13.26178,0,0,0,9.188,5.33105l.13916.0166V56.32632H9.30981V47.27066a8.97792,8.97792,0,0,1,2.417-5.89307l.30176-.30664.04639-.04053a6.13864,6.13864,0,0,1,4.15186-1.78662c3.90186,0,6.92822,4.31494,6.92822,8.02686v9.05566H17.15845Zm-.92627-11.99121a.92607.92607,0,0,1,.92627.92676v3.13281H21.302V47.27066a7.00828,7.00828,0,0,0-1.60059-4.26514A4.4943,4.4943,0,0,0,16.238,41.09683a4.39132,4.39132,0,0,0-3.0293,1.41455,7.06492,7.06492,0,0,0-2.04639,4.75928v7.20215h4.14355V51.34A.92774.92774,0,0,1,16.23218,50.41324Z" style="fill:#fff"/><g style="opacity:0.699999988079071"><path d="M36.85232,62.706V55.1999a.16918.16918,0,0,1,.18032-.19132h.21424a.17729.17729,0,0,1,.19163.19132V62.39h3.60634a.16952.16952,0,0,1,.18032.19193V62.706a.16932.16932,0,0,1-.18032.19132H37.03263A.16946.16946,0,0,1,36.85232,62.706Z" style="fill:#fff"/><path d="M43.00327,60.09108a2.75339,2.75339,0,0,1,2.81753-2.91869,2.567,2.567,0,0,1,2.423,1.48716V57.48779a.17455.17455,0,0,1,.18032-.19132H48.627a.17232.17232,0,0,1,.19163.19132V62.706a.17759.17759,0,0,1-.19163.19132h-.20293a.16932.16932,0,0,1-.18032-.19132V61.53362a2.54826,2.54826,0,0,1-2.40036,1.48777A2.77552,2.77552,0,0,1,43.00327,60.09108Zm5.25181,0a2.30234,2.30234,0,0,0-2.378-2.40036,2.41416,2.41416,0,0,0,.01131,4.82333A2.30558,2.30558,0,0,0,48.25509,60.09108Z" style="fill:#fff"/><path d="M52.197,62.706v-5.2182a.17759.17759,0,0,1,.19163-.19132h.19163a.17218.17218,0,0,1,.19163.19132v1.0819a2.27493,2.27493,0,0,1,4.36154,1.11552V62.706a.17759.17759,0,0,1-.19163.19132h-.20293a.16932.16932,0,0,1-.18032-.19132V59.68521c0-1.555-.91289-1.99449-1.76925-1.99449a2.12511,2.12511,0,0,0-2.01741,2.34412V62.706a.17245.17245,0,0,1-.19163.19132h-.19163A.17258.17258,0,0,1,52.197,62.706Z" style="fill:#fff"/><path d="M59.98181,60.09108A2.77241,2.77241,0,0,1,62.822,57.17239a2.52671,2.52671,0,0,1,2.40036,1.48716V54.94073a.17744.17744,0,0,1,.19163-.19132h.19163a.17232.17232,0,0,1,.19163.19132V62.706a.17759.17759,0,0,1-.19163.19132h-.19163a.17245.17245,0,0,1-.19163-.19132V61.53362A2.52629,2.52629,0,0,1,62.822,63.02139,2.77552,2.77552,0,0,1,59.98181,60.09108Zm5.26312,0a2.30251,2.30251,0,0,0-2.378-2.40036,2.41389,2.41389,0,0,0,0,4.82333A2.31454,2.31454,0,0,0,65.24494,60.09108Z" style="fill:#fff"/><path d="M68.71344,62.01833a.15529.15529,0,0,1,.11247-.23655l.169-.05623c.10147-.03423.169.011.23686.10086a1.54838,1.54838,0,0,0,1.37469.69926,1.1768,1.1768,0,0,0,1.29614-1.0819c0-.47371-.3154-.81173-.89028-1.00305l-.84535-.27078c-.71-.21394-1.28453-.6308-1.28453-1.43092a1.60424,1.60424,0,0,1,1.724-1.56662,1.67117,1.67117,0,0,1,1.533.90159c.05623.12408,0,.20293-.12408.23655l-.1467.04523a.18824.18824,0,0,1-.23655-.10147,1.17486,1.17486,0,0,0-1.01436-.57518,1.08982,1.08982,0,0,0-1.18306,1.04828c0,.56357.4618.83435.90159.96943l.85635.27017a1.51007,1.51007,0,0,1,1.26222,1.47677,1.68586,1.68586,0,0,1-1.85941,1.57762A2.05954,2.05954,0,0,1,68.71344,62.01833Z" style="fill:#fff"/><path d="M74.88732,60.1247a2.9003,2.9003,0,0,1,3.16686-2.95231,3.421,3.421,0,0,1,1.79186.541.16532.16532,0,0,1,.05654.25917l-.07885.10147a.19556.19556,0,0,1-.27048.04523,2.76109,2.76109,0,0,0-1.47646-.42848,2.41954,2.41954,0,1,0,0,4.82333,2.79525,2.79525,0,0,0,1.47646-.43948.18616.18616,0,0,1,.27048.05623l.06754.10147c.06754.10147.02262.21455-.1577.3154a3.38019,3.38019,0,0,1-1.67939.47371A2.902,2.902,0,0,1,74.88732,60.1247Z" style="fill:#fff"/><path d="M82.28949,60.09108A2.75339,2.75339,0,0,1,85.107,57.17239a2.567,2.567,0,0,1,2.423,1.48716V57.48779a.17471.17471,0,0,1,.18032-.19132h.20293a.172.172,0,0,1,.19132.19132V62.706a.1772.1772,0,0,1-.19132.19132h-.20293A.16946.16946,0,0,1,87.53,62.706V61.53362a2.54826,2.54826,0,0,1-2.40036,1.48777A2.77552,2.77552,0,0,1,82.28949,60.09108Zm5.25212,0a2.30241,2.30241,0,0,0-2.37835-2.40036,2.41415,2.41415,0,0,0,.01161,4.82333A2.30558,2.30558,0,0,0,87.54161,60.09108Z" style="fill:#fff"/><path d="M91.48292,65.23042V57.48779a.17241.17241,0,0,1,.19193-.19132h.19132a.172.172,0,0,1,.19132.19132v1.17176a2.52756,2.52756,0,0,1,2.401-1.48716,2.78166,2.78166,0,0,1,2.83984,2.9297,2.7476,2.7476,0,0,1-2.81723,2.9193,2.56835,2.56835,0,0,1-2.42358-1.48777v3.69681a.1772.1772,0,0,1-.19132.19132h-.19132A.17267.17267,0,0,1,91.48292,65.23042Zm5.24081-5.12834a2.26312,2.26312,0,0,0-2.3105-2.41136,2.412,2.412,0,0,0,.011,4.82333A2.25385,2.25385,0,0,0,96.72373,60.10208Z" style="fill:#fff"/><path d="M99.78606,60.11369a2.92779,2.92779,0,0,1,2.99754-2.94131,2.61813,2.61813,0,0,1,2.75,2.59168.16043.16043,0,0,1-.18032.19193h-4.98164a2.37443,2.37443,0,0,0,2.54706,2.55806,2.79174,2.79174,0,0,0,1.8484-.665.17335.17335,0,0,1,.25917.02262l.07885.09046a.18809.18809,0,0,1-.03362.29279,3.15637,3.15637,0,0,1-2.16381.7665A2.9151,2.9151,0,0,1,99.78606,60.11369Zm5.16135-.6088a2.04413,2.04413,0,0,0-2.1528-1.82579,2.38343,2.38343,0,0,0-2.36613,1.82579Z" style="fill:#fff"/><path d="M112.53968,60.09108a2.75332,2.75332,0,0,1,2.81723-2.91869,2.56785,2.56785,0,0,1,2.42358,1.48716V57.48779a.17439.17439,0,0,1,.18032-.19132h.20232a.17241.17241,0,0,1,.19193.19132V62.706a.17767.17767,0,0,1-.19193.19132h-.20232a.16918.16918,0,0,1-.18032-.19132V61.53362a2.54912,2.54912,0,0,1-2.401,1.48777A2.77545,2.77545,0,0,1,112.53968,60.09108Zm5.25181,0a2.30226,2.30226,0,0,0-2.37774-2.40036,2.41414,2.41414,0,0,0,.011,4.82333A2.30558,2.30558,0,0,0,117.79149,60.09108Z" style="fill:#fff"/><path d="M121.7328,62.706v-5.2182a.17767.17767,0,0,1,.19193-.19132h.19132a.17241.17241,0,0,1,.19193.19132v1.0819a2.27476,2.27476,0,0,1,4.36123,1.11552V62.706a.17767.17767,0,0,1-.19193.19132H126.275a.16961.16961,0,0,1-.18093-.19132V59.68521c0-1.555-.91259-1.99449-1.76894-1.99449a2.12475,2.12475,0,0,0-2.01711,2.34412V62.706a.17267.17267,0,0,1-.19193.19132h-.19132A.17267.17267,0,0,1,121.7328,62.706Z" style="fill:#fff"/><path d="M129.51761,60.09108a2.77234,2.77234,0,0,1,2.83984-2.91869,2.52756,2.52756,0,0,1,2.401,1.48716V54.94073a.1772.1772,0,0,1,.19132-.19132h.19132a.17241.17241,0,0,1,.19193.19132V62.706a.17767.17767,0,0,1-.19193.19132h-.19132a.17222.17222,0,0,1-.19132-.19132V61.53362a2.52714,2.52714,0,0,1-2.401,1.48777A2.77545,2.77545,0,0,1,129.51761,60.09108Zm5.26282,0a2.30226,2.30226,0,0,0-2.37774-2.40036,2.41388,2.41388,0,0,0,0,4.82333A2.3143,2.3143,0,0,0,134.78043,60.09108Z" style="fill:#fff"/><path d="M143.30729,65.23042V57.48779a.17241.17241,0,0,1,.19193-.19132h.19132a.17241.17241,0,0,1,.19193.19132v1.17176a2.52612,2.52612,0,0,1,2.40036-1.48716,2.78166,2.78166,0,0,1,2.83984,2.9297,2.7476,2.7476,0,0,1-2.81723,2.9193,2.56687,2.56687,0,0,1-2.423-1.48777v3.69681a.17767.17767,0,0,1-.19193.19132h-.19132A.17267.17267,0,0,1,143.30729,65.23042Zm5.24081-5.12834a2.26347,2.26347,0,0,0-2.3105-2.41136,2.412,2.412,0,0,0,.011,4.82333A2.25385,2.25385,0,0,0,148.5481,60.10208Z" style="fill:#fff"/><path d="M151.62144,60.09108a2.75332,2.75332,0,0,1,2.81723-2.91869,2.56785,2.56785,0,0,1,2.42358,1.48716V57.48779a.17439.17439,0,0,1,.18032-.19132h.20232a.17241.17241,0,0,1,.19193.19132V62.706a.17767.17767,0,0,1-.19193.19132h-.20232a.16918.16918,0,0,1-.18032-.19132V61.53362a2.54912,2.54912,0,0,1-2.401,1.48777A2.77545,2.77545,0,0,1,151.62144,60.09108Zm5.25181,0a2.30226,2.30226,0,0,0-2.37774-2.40036,2.41414,2.41414,0,0,0,.011,4.82333A2.30558,2.30558,0,0,0,156.87325,60.09108Z" style="fill:#fff"/><path d="M161.0291,61.173V57.76957h-.86736a.113.113,0,0,1-.12408-.12408v-.22555a.1125.1125,0,0,1,.12408-.12347h.86736l.12408-1.62285a.16381.16381,0,0,1,.16931-.15831h.10147c.11247,0,.1687.05685.1687.15831v1.62285H163.317c.09046,0,.12408.04462.12408.12347v.22555a.10812.10812,0,0,1-.12408.12408h-1.72432v3.437c0,1.0709.50733,1.30745,1.00305,1.30745a.87957.87957,0,0,0,.94682-.89.9219.9219,0,0,0-.02262-.20293c-.02262-.09046.01161-.1357.10147-.1357h.25917a.13776.13776,0,0,1,.1467.10147,1.57327,1.57327,0,0,1,.03362.2934,1.32937,1.32937,0,0,1-1.47616,1.34107C161.81822,63.02139,161.0291,62.68337,161.0291,61.173Z" style="fill:#fff"/><path d="M166.493,55.335a.44611.44611,0,1,1,.89058,0,.4469.4469,0,1,1-.89058,0Zm.16931,7.371v-5.2182a.17471.17471,0,0,1,.18032-.19132h.20293a.172.172,0,0,1,.19132.19132V62.706a.1772.1772,0,0,1-.19132.19132h-.20293A.16946.16946,0,0,1,166.66233,62.706Z" style="fill:#fff"/><path d="M170.188,60.11369a2.94181,2.94181,0,1,1,2.93031,2.90769A2.94813,2.94813,0,0,1,170.188,60.11369Zm5.308,0a2.36709,2.36709,0,1,0-4.73287,0,2.36667,2.36667,0,1,0,4.73287,0Z" style="fill:#fff"/><path d="M178.52476,62.01833a.15541.15541,0,0,1,.11308-.23655l.1687-.05623c.10147-.03423.16931.011.23655.10086a1.5491,1.5491,0,0,0,1.3753.69926,1.17669,1.17669,0,0,0,1.29584-1.0819c0-.47371-.3154-.81173-.89058-1.00305l-.84474-.27078c-.71027-.21394-1.28484-.6308-1.28484-1.43092a1.60434,1.60434,0,0,1,1.72432-1.56662,1.67059,1.67059,0,0,1,1.53239.90159c.05623.12408,0,.20293-.12408.23655l-.14609.04523a.188.188,0,0,1-.23655-.10147,1.17645,1.17645,0,0,0-1.01467-.57518,1.08992,1.08992,0,0,0-1.18337,1.04828c0,.56357.4621.83435.90159.96943l.857.27017a1.51006,1.51006,0,0,1,1.26161,1.47677,1.68568,1.68568,0,0,1-1.85941,1.57762A2.06055,2.06055,0,0,1,178.52476,62.01833Z" style="fill:#fff"/></g><path d="M39.00023,32.91474v5.04766h6.41532a1.018,1.018,0,0,1,1.1308,1.10452v.52628a1.03727,1.03727,0,0,1-1.1308,1.13019H39.00023v4.75915h7.54612a1.01728,1.01728,0,0,1,1.10421,1.13019v.684a.99821.99821,0,0,1-1.10421,1.10452H36.6338a.99821.99821,0,0,1-1.10421-1.10452V31.1a.99821.99821,0,0,1,1.10421-1.10452h9.91255A.99821.99821,0,0,1,47.65056,31.1v.684a1.01774,1.01774,0,0,1-1.10421,1.1308Z" style="fill:#fff"/><path d="M49.77708,47.11273l6.23133-16.223a1.27179,1.27179,0,0,1,1.2885-.89425h1.709a1.27119,1.27119,0,0,1,1.2882.89425l6.31049,16.223c.28912.76222-.05257,1.2885-.86766,1.2885H64.47477a1.28221,1.28221,0,0,1-1.31448-.89425l-1.02536-2.70842H54.19424L53.16888,47.507a1.221,1.221,0,0,1-1.26222.89425H50.64475C49.82965,48.40123,49.48766,47.87495,49.77708,47.11273Zm11.54274-5.07455L58.16458,33.493l-3.15524,8.5452Z" style="fill:#fff"/><path d="M76.19783,41.6702H73.14772v5.62651a.99812.99812,0,0,1-1.10391,1.10452H70.78159a.99856.99856,0,0,1-1.10452-1.10452V31.1a.99856.99856,0,0,1,1.10452-1.10452h6.94129a5.641,5.641,0,0,1,5.86367,5.9688,5.33617,5.33617,0,0,1-4.18091,5.52137c.184,1.9462,1.31479,4.3649,3.10268,4.3649a2.5699,2.5699,0,0,0,1.26222-.26284c.65709-.26345,1.02506-.15831,1.34107.4731l.184.36858c.28912.6308.23655,1.15647-.3423,1.49816a5.46738,5.46738,0,0,1-2.8918.76222C77.59146,48.68974,76.38181,43.79978,76.19783,41.6702Zm.9731-2.62957a2.81114,2.81114,0,0,0,2.86551-3.05011,2.833,2.833,0,0,0-2.86551-3.07578H73.14772v6.12589Z" style="fill:#fff"/><path d="M100.4893,31.1v.684a1.01766,1.01766,0,0,1-1.10391,1.1308h-4.6803v14.382a.9983.9983,0,0,1-1.10452,1.10452H92.36464a.99812.99812,0,0,1-1.10391-1.10452v-14.382h-4.654a1.01811,1.01811,0,0,1-1.10452-1.1308V31.1a.99856.99856,0,0,1,1.10452-1.10452H99.38539A.99812.99812,0,0,1,100.4893,31.1Z" style="fill:#fff"/><path d="M103.40432,47.29671V31.1a.99856.99856,0,0,1,1.10452-1.10452h1.26222A.99812.99812,0,0,1,106.875,31.1v7.09961h7.67754V31.1a.9983.9983,0,0,1,1.10452-1.10452h1.26161A.9983.9983,0,0,1,118.02316,31.1V47.29671a.9983.9983,0,0,1-1.10452,1.10452H115.657a.9983.9983,0,0,1-1.10452-1.10452V41.03879H106.875v6.25792a.99812.99812,0,0,1-1.10391,1.10452h-1.26222A.99856.99856,0,0,1,103.40432,47.29671Z" style="fill:#fff"/><path d="M122.31715,46.93669a.25944.25944,0,0,1,.18765-.39486l.28178-.09352c.1687-.05685.28117.01895.39425.1687a2.57965,2.57965,0,0,0,2.29033,1.16442,1.96077,1.96077,0,0,0,2.15953-1.80256c0-.78912-.52567-1.35207-1.48349-1.67114l-1.40831-.45049c-1.18276-.357-2.14058-1.05134-2.14058-2.38508a2.67342,2.67342,0,0,1,2.87285-2.61,2.78341,2.78341,0,0,1,2.55378,1.50244c.09413.2066,0,.338-.2066.39425l-.24389.07518a.31317.31317,0,0,1-.39425-.1687,1.9595,1.9595,0,0,0-1.69009-.95843,1.81557,1.81557,0,0,0-1.97126,1.74694c0,.93887.76956,1.38936,1.50183,1.61491l1.42726.44988a2.51554,2.51554,0,0,1,2.10268,2.46026c0,1.63386-1.44559,2.629-3.09779,2.629A3.43174,3.43174,0,0,1,122.31715,46.93669Z" style="fill:#fff"/><path d="M130.25966,43.78144c0-2.72248,1.89669-4.9193,5.27626-4.9193a5.70281,5.70281,0,0,1,2.98593.90159.27588.27588,0,0,1,.09352.43215l-.13142.1687a.325.325,0,0,1-.45049.07518,4.601,4.601,0,0,0-2.45965-.71332,4.03115,4.03115,0,1,0,0,8.036,4.65987,4.65987,0,0,0,2.45965-.73227.3102.3102,0,0,1,.45049.09352l.11247.16931c.11308.16931.0379.357-.26284.52567a5.62714,5.62714,0,0,1-2.79767.78912C132.19364,48.60783,130.3159,46.46725,130.25966,43.78144Z" style="fill:#fff"/><path d="M140.24923,43.72521a4.58779,4.58779,0,0,1,4.69436-4.86306,4.27711,4.27711,0,0,1,4.03666,2.4786V39.38782a.29159.29159,0,0,1,.30073-.31907h.338a.28707.28707,0,0,1,.31907.31907v8.69434a.29594.29594,0,0,1-.31907.31907h-.338a.28255.28255,0,0,1-.30073-.31907V46.12862a4.24593,4.24593,0,0,1-3.99937,2.47921A4.62475,4.62475,0,0,1,140.24923,43.72521Zm8.75,0a3.83508,3.83508,0,0,0-3.96209-3.99876,3.73866,3.73866,0,0,0-3.83006,3.99876,3.77576,3.77576,0,0,0,3.849,4.03727A3.84158,3.84158,0,0,0,148.9992,43.72521Z" style="fill:#fff"/><path d="M153.22412,52.28752V39.38782a.28707.28707,0,0,1,.31907-.31907h.31968a.28734.28734,0,0,1,.31907.31907v1.95293a4.21069,4.21069,0,0,1,3.99937-2.4786,4.63463,4.63463,0,0,1,4.73164,4.882,4.57781,4.57781,0,0,1-4.69436,4.86367,4.27726,4.27726,0,0,1-4.03666-2.47921v6.1589a.29566.29566,0,0,1-.31907.31907h-.31968A.28707.28707,0,0,1,153.22412,52.28752Zm8.731-8.54337a3.77078,3.77078,0,0,0-3.849-4.01771,4.01857,4.01857,0,0,0,.01895,8.036A3.7545,3.7545,0,0,0,161.95514,43.74416Z" style="fill:#fff"/><path d="M164.71491,43.76311a4.87894,4.87894,0,0,1,4.99509-4.901,4.36259,4.36259,0,0,1,4.58128,4.31905.26687.26687,0,0,1-.30073.31907h-8.29887a3.95553,3.95553,0,0,0,4.24326,4.26221,4.64782,4.64782,0,0,0,3.07945-1.10819.28843.28843,0,0,1,.43215.0379l.13142.15037a.31287.31287,0,0,1-.05685.48777,5.25865,5.25865,0,0,1-3.60512,1.2775A4.85729,4.85729,0,0,1,164.71491,43.76311Zm8.60021-1.01405a3.40591,3.40591,0,0,0-3.58678-3.04216,3.97164,3.97164,0,0,0-3.94314,3.04216Z" style="fill:#fff"/><path d="M175.92575,46.93669a.25944.25944,0,0,1,.18765-.39486l.28178-.09352c.1687-.05685.28117.01895.39425.1687a2.57965,2.57965,0,0,0,2.29033,1.16442,1.96077,1.96077,0,0,0,2.15953-1.80256c0-.78912-.52567-1.35207-1.48349-1.67114l-1.40831-.45049c-1.18276-.357-2.14058-1.05134-2.14058-2.38508a2.67342,2.67342,0,0,1,2.87285-2.61,2.78341,2.78341,0,0,1,2.55378,1.50244c.09413.2066,0,.338-.2066.39425l-.24389.07518a.31317.31317,0,0,1-.39425-.1687,1.9595,1.9595,0,0,0-1.69009-.95843,1.81557,1.81557,0,0,0-1.97126,1.74694c0,.93887.76956,1.38936,1.50183,1.61491l1.42726.44988a2.51554,2.51554,0,0,1,2.10268,2.46026c0,1.63386-1.44559,2.629-3.09779,2.629A3.43174,3.43174,0,0,1,175.92575,46.93669Z" style="fill:#fff"/></svg>