<svg id="Layer_1" data-name="Layer 1" xmlns="http://www.w3.org/2000/svg" viewBox="0 0 120 200"><title>logo-icon-regular</title><path d="M92.13268,68.34621A95.33592,95.33592,0,0,0,78.07281,43.74057,88.4275,88.4275,0,0,0,57.646,24.729a5.35277,5.35277,0,0,0-6.72839.67525l-.00046.00039a5.34229,5.34229,0,0,0-1.54653,4.19792c.83612,10.748-1.69589,19.07669-9.34239,30.7301-1.39879,2.13184-2.93791,4.209-4.56727,6.408-4.21655,5.6906-8.57658,11.57491-10.75579,18.86991-3.65164,12.22451-1.70292,25.31929,5.21292,35.02871a38.27293,38.27293,0,0,0,26.49563,15.56684c.50959.06313,1.0167.10957,1.52312.15206v8.61962c0,8.96833,0,13.61241-2.21722,19.02213-1.52984,3.73563-4.58195,8.0228-14.68605,8.0228a2.06736,2.06736,0,1,0,0,4.13472c6.5965.00039,11.52716-1.65648,14.907-5.03637A16.67381,16.67381,0,0,0,59.546,165.5684c2.52568-6.16356,2.526-11.18494,2.52568-20.59053v-8.497a32.7969,32.7969,0,0,0,20.59269-7.71272c.78327-.66675,1.54715-1.37159,2.27054-2.09491,7.033-7.03306,11.18795-16.77779,12.01565-28.18078A71.197,71.197,0,0,0,92.13268,68.34621Zm-32.12843,33.0436a2.06678,2.06678,0,0,0-2.0674,2.06732v8.40705l-11.33615-.00008L46.60062,92.958a18.342,18.342,0,0,1,4.6271-11.68172,13.15831,13.15831,0,0,1,6.45451-4.27853,9.37285,9.37285,0,0,1,2.33631-.29251c1.89463,0,5.60754.65531,9.18754,5.04347A18.42444,18.42444,0,0,1,73.40787,92.958v18.90615H62.07165v-8.40705A2.06688,2.06688,0,0,0,60.00425,101.38981Zm22.00663,22.35936q-.96582.96582-2.027,1.87013a28.7858,28.7858,0,0,1-17.91225,6.71843V115.99937H77.543V92.958c0-9.67851-7.84593-20.38793-17.553-20.388a15.3593,15.3593,0,0,0-10.21021,4.263c-.037-.03731-1.31262,1.32413-1.42841,1.45526a24.678,24.678,0,0,0-2.281,2.998,23.11471,23.11471,0,0,0-3.14338,7.51942,19.49367,19.49367,0,0,0-.46142,4.15223v23.04134H57.93685v16.20353a34.4107,34.4107,0,0,1-24.65061-13.96251c-6.37219-8.94616-7.79192-20.824-4.61888-31.44607,2.76336-9.25067,9.71135-16.41,14.81826-24.19295C50.82969,51.40878,54.47893,41.95,53.49337,29.28176a1.20559,1.20559,0,0,1,1.86325-1.10919c14.56605,9.68384,26.37687,24.7679,32.91982,41.6667C95.036,87.2971,95.73834,110.02171,82.01088,123.74917Z" style="fill:#231f20"/></svg>