<svg id="Layer_1" data-name="Layer 1" xmlns="http://www.w3.org/2000/svg" viewBox="0 0 120 200"><title>logo-icon-thick</title><path d="M41.03369,176.15723l-.002.5a2.56738,2.56738,0,0,1,.002-5.13477c9.80713,0,12.75293-4.12109,14.22314-7.71191,2.18018-5.31934,2.18018-9.835,2.18018-18.833v-8.16113c-.36084-.03223-.72217-.06934-1.085-.11426a38.77,38.77,0,0,1-26.84131-15.77246c-7.00439-9.835-8.98-23.09131-5.28467-35.46191,2.2041-7.37842,6.58984-13.29785,10.83154-19.02246,1.62842-2.19824,3.1626-4.26855,4.55273-6.38721,7.57764-11.54883,10.08789-19.79248,9.26172-30.417a5.84438,5.84438,0,0,1,9.05078-5.32861,88.93929,88.93929,0,0,1,20.543,19.11865A95.85958,95.85958,0,0,1,92.59863,68.16553a71.70769,71.70769,0,0,1,4.85059,30.36328c-.83594,11.5249-5.041,21.37939-12.16113,28.49756-.72754.72852-1.501,1.44336-2.2998,2.123a33.15175,33.15175,0,0,1-20.417,7.81445v8.01367c.001,9.36426.002,14.52246-2.5625,20.78027a17.26265,17.26265,0,0,1-3.71484,5.7168c-3.4873,3.4873-8.47656,5.18262-15.25342,5.18262Zm21.5376-44.33984a28.13479,28.13479,0,0,0,17.08887-6.5791c.68652-.584,1.3584-1.2041,1.99707-1.84277C95.92773,109.125,93.89063,85.72363,87.81055,70.02c-6.51855-16.835-18.44824-31.936-32.731-41.43115a.68129.68129,0,0,0-.38184-.11914.717.717,0,0,0-.50293.2124.70348.70348,0,0,0-.20312.561c1.0542,13.54639-3.27051,23.2417-10.08789,33.63232-1.47119,2.24219-3.12207,4.47021-4.71875,6.625-3.97852,5.36914-8.09229,10.92139-10.03857,17.437-3.24561,10.86475-1.5459,22.458,4.54687,31.0127A33.95251,33.95251,0,0,0,57.437,131.64941V116.499H41.96533V92.958a20.02227,20.02227,0,0,1,.47314-4.25879,23.46024,23.46024,0,0,1,3.21094-7.68311A25.37448,25.37448,0,0,1,47.97656,77.957a11.35849,11.35849,0,0,1,1.47168-1.49316l-.00244-.00293a15.78776,15.78776,0,0,1,10.54395-4.39111C70.15723,72.07031,78.043,83.29883,78.043,92.958v23.541H62.57129ZM72.9082,111.36426V92.958a17.91364,17.91364,0,0,0-4.08984-10.89355c-3.44922-4.228-6.99414-4.85937-8.7998-4.85937a8.84266,8.84266,0,0,0-2.21289.27686A12.54527,12.54527,0,0,0,51.603,81.60645,17.79874,17.79874,0,0,0,47.10059,92.958v18.40625H57.437V103.457a2.56714,2.56714,0,1,1,5.13428,0v7.90723Z" style="fill:#231f20"/></svg>